<svg
    xmlns="http://www.w3.org/2000/svg"
    viewBox="0 0 25 23"
    id="vector">
    <path
        id="path"
        d="M 13.053 5.105 C 13.053 4.491 13.391 4.152 14.005 4.152 L 16.638 4.152 C 17.251 4.152 17.59 4.491 17.59 5.105 L 17.59 15.815 L 23.197 15.815 C 23.811 15.815 24.148 16.153 24.148 16.767 L 24.148 18.865 C 24.148 19.478 23.811 19.817 23.197 19.817 L 17.813 19.817 L 13.053 5.992 L 13.053 5.105 Z M 12.102 19.817 L 11.192 17.107 L 6.539 17.107 L 5.607 19.817 L 1.333 19.817 L 6.834 4.152 L 10.96 4.152 L 16.355 19.817 L 12.102 19.817 Z M 7.511 13.636 L 10.304 13.636 L 8.844 9.296 L 7.511 13.636 Z"
        fill="#000000"/>
</svg>
