<svg
    xmlns="http://www.w3.org/2000/svg"
    viewBox="0 0 24 24"
    id="vector">
    <path
        id="path"
        d="M 24 12 C 24 18.627 18.627 24 12 24 C 5.373 24 0 18.627 0 12 C 0 5.373 5.373 0 12 0 C 18.627 0 24 5.373 24 12 Z M 12.43 8.859 C 11.263 9.344 8.93 10.349 5.432 11.873 C 4.864 12.099 4.566 12.32 4.539 12.536 C 4.493 12.902 4.951 13.045 5.574 13.241 C 5.658 13.268 5.746 13.295 5.836 13.325 C 6.449 13.524 7.273 13.757 7.701 13.766 C 8.09 13.774 8.524 13.614 9.003 13.285 C 12.271 11.079 13.958 9.964 14.064 9.94 C 14.139 9.923 14.243 9.902 14.313 9.964 C 14.383 10.026 14.376 10.144 14.369 10.176 C 14.323 10.369 12.528 12.038 11.599 12.902 C 11.309 13.171 11.104 13.362 11.062 13.406 C 10.968 13.503 10.872 13.596 10.78 13.685 C 10.211 14.233 9.784 14.645 10.804 15.317 C 11.294 15.64 11.686 15.907 12.077 16.173 C 12.504 16.464 12.93 16.754 13.482 17.116 C 13.622 17.208 13.756 17.303 13.887 17.396 C 14.384 17.751 14.831 18.069 15.383 18.019 C 15.703 17.989 16.035 17.688 16.203 16.788 C 16.6 14.663 17.382 10.059 17.562 8.161 C 17.578 7.995 17.558 7.782 17.542 7.689 C 17.526 7.595 17.493 7.462 17.371 7.364 C 17.228 7.247 17.006 7.222 16.906 7.224 C 16.455 7.232 15.763 7.473 12.43 8.859 Z"
        fill="#000000"
        fill-rule="evenodd"/>
</svg>
