<svg id="Layer_7" data-name="Layer 7" xmlns="http://www.w3.org/2000/svg" xmlns:xlink="http://www.w3.org/1999/xlink" viewBox="0 0 768 768">
  <defs>
    <style>
      .cls-1 {
        fill: none;
      }

      .cls-2 {
        clip-path: url(#clip-path);
      }

      .cls-3 {
        fill: #ff4ba8;
      }

      .cls-4 {
        fill: #c50053;
      }

      .cls-5 {
        fill: #ff0080;
      }

      .cls-6 {
        fill: #19212d;
      }

      .cls-7 {
        fill: #e9e7ff;
      }
    </style>
    <clipPath id="clip-path">
      <rect class="cls-1" x="128" y="128" width="512" height="512" rx="256"/>
    </clipPath>
  </defs>
  <g class="cls-2">
    <rect class="cls-3" width="768" height="384"/>
    <rect class="cls-4" y="384" width="768" height="384"/>
    <circle class="cls-5" cx="384" cy="384" r="172.26"/>
    <path class="cls-6" d="M435.83,430.42A27.72,27.72,0,0,1,442.5,448c0,10.32-6.43,17.41-7.83,18.82L133.47,768H0V0H528.45L280.18,248.28c-8.92,9-29.67,33.86-29.68,71.71,0,10.22,2.27,45.73,31.56,73.57,26.42,25.1,57.63,27.9,69.82,27.94h63.86C417.49,421.54,428.4,422.1,435.83,430.42Z"/>
    <path class="cls-6" d="M768,0V768H239.55L487.77,519.77l.1-.1c8.9-9,29.61-33.91,29.63-71.65,0-11.64-2.48-41.52-25.73-67.55-27.76-31.09-64.72-33.86-75.39-34H352.07c-1.9,0-11.12-.44-18.34-7.31-8-7.6-8.23-18-8.23-19.18a27.91,27.91,0,0,1,7.76-18.75L634.53,0Z"/>
    <path class="cls-7" d="M442,366.7l-76-43.89a20,20,0,0,0-30,17.3v87.78a20,20,0,0,0,30,17.3l76-43.89A20,20,0,0,0,442,366.7Z"/>
  </g>
</svg>
